<svg width="10" height="10" viewBox="0 0 10 10" fill="none" xmlns="http://www.w3.org/2000/svg">
<path d="M5 0C2.23875 0 0 2.23875 0 5C0 7.76125 2.23875 10 5 10C7.76125 10 10 7.76125 10 5C10 2.23875 7.76125 0 5 0ZM5 9.0625C2.75625 9.0625 0.9375 7.24375 0.9375 5C0.9375 2.75625 2.75625 0.9375 5 0.9375C7.24375 0.9375 9.0625 2.75625 9.0625 5C9.0625 7.24375 7.24375 9.0625 5 9.0625Z" fill="#FEB200"/>
<path d="M3.46436 6.90186L4.34811 7.78561L7.13373 4.99998L4.34811 2.21436L3.46436 3.09811L5.36623 4.99998L3.46436 6.90186Z" fill="#FEB200"/>
</svg>
