<svg width="60" height="62" viewBox="0 0 60 62" fill="none" xmlns="http://www.w3.org/2000/svg">
<path d="M30 0C13.4325 0 0 4.29 0 9.58445V15.3351L22.5 38.3378V57.5067C22.5 59.623 25.8563 61.3405 30 61.3405C34.1437 61.3405 37.5 59.623 37.5 57.5067V38.3378L60 15.3351V9.58445C60 4.29 46.5675 0 30 0ZM5.53125 8.31547C6.93375 7.49888 8.90625 6.72062 11.2312 6.06888C16.3837 4.62737 23.0513 3.83378 30 3.83378C36.9487 3.83378 43.6162 4.62737 48.7687 6.06888C51.0938 6.72062 53.0662 7.49504 54.4688 8.31547C55.395 8.85604 55.8937 9.31225 56.1263 9.58445C55.8937 9.85665 55.395 10.3129 54.4688 10.8534C53.0662 11.67 51.0938 12.4483 48.7687 13.1C43.6162 14.5415 36.9487 15.3351 30 15.3351C23.0513 15.3351 16.3837 14.5415 11.2312 13.1C8.90625 12.4483 6.93375 11.6739 5.53125 10.8534C4.605 10.3129 4.10625 9.85665 3.87375 9.58445C4.10625 9.31225 4.605 8.85604 5.53125 8.31547Z" fill="#FEB200"/>
</svg>
