<svg width="10" height="8" viewBox="0 0 10 8" fill="none" xmlns="http://www.w3.org/2000/svg">
<path d="M7.33333 4.66418C6.66667 5.18243 6.66667 5.70067 6 5.70067C5.33333 5.70067 4.66667 5.18243 4 4.66418C3.33333 4.14594 2.66667 3.6277 2.66667 3.10946C2.66667 2.59121 3.33333 2.59121 4 2.07297C4.66667 1.55473 2.66667 0 2 0C1.33333 0 0 1.55473 0 1.55473C0 2.59121 1.37 4.69269 2.66667 5.70067C3.96333 6.70865 6.66667 7.77364 8 7.77364C8 7.77364 10 6.73715 10 6.21891C10 5.70067 8 4.14594 7.33333 4.66418Z" fill="#FEB200"/>
</svg>
