<svg width="50" height="50" viewBox="0 0 50 50" fill="none" xmlns="http://www.w3.org/2000/svg">
<path d="M46.1504 0.00429594C45.4733 0.0368632 44.8424 0.251878 44.287 0.496624C43.7667 0.724769 41.7789 1.6542 38.6479 3.11794C35.5141 4.58295 31.3647 6.52502 26.9384 8.60008C18.0857 12.7502 8.133 17.4218 3.03519 19.8127C2.8435 19.9026 2.17463 20.1356 1.4647 20.7397C0.754781 21.3439 0 22.5959 0 23.9909C0 25.1158 0.491761 26.2333 1.11073 26.9005C1.72971 27.5677 2.38466 27.8973 2.94568 28.1468C4.98125 29.0523 11.2944 31.8687 12.4866 32.4004C12.9062 33.8015 15.1912 41.4217 15.7212 43.2893C16.0705 44.5217 16.403 45.2936 16.836 45.9061C17.0524 46.2124 17.3041 46.4808 17.609 46.6912C17.7309 46.7753 17.8645 46.84 17.9996 46.8997L18.0077 46.9041C18.0389 46.9177 18.0657 46.9409 18.0972 46.9529C18.1568 46.9756 18.1966 46.9783 18.2763 46.9972C18.5936 47.109 18.9139 47.1791 19.1998 47.1791C20.4188 47.1791 21.165 46.4473 21.165 46.4473L21.2097 46.4118L27.4795 40.4994L35.0838 48.3412C35.1908 48.5062 36.1894 50 38.3915 50C39.6991 50 40.7364 49.2847 41.4023 48.523C42.0683 47.7613 42.4832 46.9611 42.6595 45.9549V45.9505C42.8245 44.9997 49.8325 5.77917 49.8325 5.77917L49.8203 5.8324C50.0255 4.81159 50.0792 3.86092 49.8529 2.92278C49.6265 1.98464 49.03 1.08642 48.2905 0.603073C47.5511 0.11983 46.8275 -0.0282715 46.1504 0.00429594ZM45.7598 4.75016C45.7498 4.81644 45.7673 4.78311 45.7517 4.86105L45.7476 4.88766L45.7435 4.91427C45.7435 4.91427 38.8223 43.6332 38.5665 45.1078C38.5852 44.9964 38.4996 45.2178 38.4119 45.3517C38.2878 45.2585 38.0335 45.1388 38.0335 45.1388L37.9928 45.09L27.6056 34.3786L20.2617 41.2978L22.4466 31.7617C22.4466 31.7617 36.104 16.3498 36.9268 15.4528C37.5893 14.7351 37.7284 14.485 37.7284 14.2375C37.7284 13.9059 37.5698 13.6653 37.2157 13.6653C36.897 13.6653 36.4684 14.0031 36.2392 14.1621C33.2539 16.2366 20.1477 24.5638 14.2727 28.2888C13.3391 27.8722 6.85282 24.9778 4.65451 23.9998C4.67115 23.9918 4.66567 23.9946 4.68299 23.9864C9.78213 21.5949 19.7307 16.9233 28.5821 12.7738C33.0078 10.699 37.1604 8.75547 40.2916 7.29164C43.3746 5.85035 45.5168 4.85842 45.7598 4.75016Z" fill="#FEB200"/>
</svg>
