<svg width="50" height="50" viewBox="0 0 50 50" fill="none" xmlns="http://www.w3.org/2000/svg">
<path d="M25 0C11.2154 0 0 11.2154 0 25C0 38.7846 11.2154 50 25 50C38.7846 50 50 38.7846 50 25C50 11.2154 38.7846 0 25 0ZM18.5885 7.69231H31.4078C37.4174 7.69231 42.3077 12.5808 42.3077 18.5885V31.4078C42.3077 37.4174 37.4192 42.3077 31.4115 42.3077H18.5922C12.5826 42.3077 7.69231 37.4192 7.69231 31.4115V18.5922C7.69231 12.5826 12.5808 7.69231 18.5885 7.69231ZM18.5885 11.5385C14.702 11.5385 11.5385 14.7038 11.5385 18.5922V31.4115C11.5385 35.298 14.7038 38.4615 18.5922 38.4615H31.4115C35.298 38.4615 38.4615 35.2962 38.4615 31.4078V18.5885C38.4615 14.702 35.2962 11.5385 31.4078 11.5385H18.5885ZM33.9769 14.7423C34.6846 14.7423 35.2577 15.3154 35.2577 16.0231C35.2577 16.7308 34.6846 17.3077 33.9769 17.3077C33.2692 17.3077 32.6923 16.7308 32.6923 16.0231C32.6923 15.3154 33.2692 14.7423 33.9769 14.7423ZM25 15.3846C30.3019 15.3846 34.6154 19.6981 34.6154 25C34.6154 30.3019 30.3019 34.6154 25 34.6154C19.6981 34.6154 15.3846 30.3019 15.3846 25C15.3846 19.6981 19.6981 15.3846 25 15.3846ZM25 19.2308C23.4699 19.2308 22.0025 19.8386 20.9205 20.9205C19.8386 22.0025 19.2308 23.4699 19.2308 25C19.2308 26.5301 19.8386 27.9975 20.9205 29.0795C22.0025 30.1614 23.4699 30.7692 25 30.7692C26.5301 30.7692 27.9975 30.1614 29.0795 29.0795C30.1614 27.9975 30.7692 26.5301 30.7692 25C30.7692 23.4699 30.1614 22.0025 29.0795 20.9205C27.9975 19.8386 26.5301 19.2308 25 19.2308Z" fill="#FEB200"/>
</svg>
