<svg width="300" height="300" viewBox="0 0 300 300" fill="none" xmlns="http://www.w3.org/2000/svg">
<path d="M234.75 167.203C217.031 184.759 186.172 193.403 170.681 196.813C191.056 187.434 213.816 171.113 232.637 142.953C232.637 142.947 239.466 150.691 234.75 167.203Z" fill="#1B2426"/>
<mask id="mask0_0_158" style="mask-type:luminance" maskUnits="userSpaceOnUse" x="20" y="142" width="245" height="118">
<path d="M20.7124 142.4H264.8V259.2H20.7124V142.4Z" fill="white"/>
</mask>
<g mask="url(#mask0_0_158)">
<path d="M20.7124 231.191C20.7124 231.191 40.4155 178.241 83.0968 172.088C125.787 165.931 133.172 183.578 181.197 166.338C181.197 166.338 189.403 192.197 138.1 198.763C138.1 198.763 132.766 209.022 148.772 209.022C164.781 209.022 221.422 201.872 260.828 142.941C260.828 142.941 279.294 163.875 234.559 210.253C189.822 256.631 133.178 280.447 20.7124 231.191Z" fill="#1B2426"/>
</g>
<mask id="mask1_0_158" style="mask-type:luminance" maskUnits="userSpaceOnUse" x="74" y="30" width="152" height="148">
<path d="M74.7344 30H225.225V177.6H74.7344V30Z" fill="white"/>
</mask>
<g mask="url(#mask1_0_158)">
<path fill-rule="evenodd" clip-rule="evenodd" d="M225.231 105.866C224.406 63.9813 189.756 30 147.872 30C111.256 30 81.2062 55.9219 74.7344 90.3813C77.0188 82.9563 81.4938 73.4063 90.1875 65.3156C107.225 49.4188 120.141 47.7031 120.141 47.7031C81.3344 68.1375 71.3719 116.559 85.3625 145.466C93.5188 158.381 105.416 168.756 119.475 175.069C123.406 176.022 127.216 176.178 127.122 170.881H127.15C124.772 161.806 119.506 144.45 116.903 142.006C113.506 138.831 105.828 140.547 102.75 136.706C99.675 132.834 88.2813 84.0656 88.2813 84.0656C88.2813 84.0656 89.2969 82.8938 90.3438 83.3063C91.3906 83.7813 104.022 127.253 105.291 128.238C106.559 129.219 106.338 128.647 107.066 128.681C107.606 128.522 108.369 128.425 108.525 126.394C108.684 124.331 94.5969 83.75 94.5656 83.0813C94.5031 82.3844 94.3438 80.2594 95.9313 80.5438C97.5156 80.8 112.463 123.031 113.381 124.078C114.331 125.125 114.872 124.872 115.572 124.809C116.047 124.428 116.459 124.397 116.459 123.063C116.491 121.763 100.022 80.0063 101.038 78.8C102.053 77.5625 103.353 79.275 103.766 79.8469C104.181 80.4188 120.234 120.334 121.694 121.763C123.122 123.191 123.725 122.809 124.234 122.619C124.834 122.113 125.059 122.653 125.406 121.097C125.725 119.509 106.656 78.3875 107.131 77.3719C107.638 76.3906 109.225 76.6406 109.225 76.6406C109.225 76.6406 132.609 121.097 132.831 125.95C133.053 130.838 125.978 134.931 125.534 139.5C125.153 143.022 133.469 162.028 138.225 171.8C139.241 173.641 140.953 176.15 143.206 177.1C146.984 178.719 148.506 177.197 148.538 173.388L148.984 130.488C148.825 129.028 148.569 127.603 148.063 126.553C147.491 125.444 146.666 124.588 145.903 124.016C138.416 121.509 132.928 114.244 132.672 101.328C132.388 84.9563 140.606 65.6625 151.234 65.6625C161.866 65.6625 170.844 84.9563 171.163 101.328C171.416 113.513 166.781 120.653 160.056 123.541C159.263 124.238 158.184 125.316 157.519 126.619C157.075 127.538 156.85 129.156 156.788 130.744L158.438 172.531H158.469C158.469 172.531 159.803 176.688 162.056 176.559C163.197 176.497 163.959 175.069 164.434 173.706H164.403C164.403 173.706 164.563 173.134 164.878 172.119C165.006 171.516 165.069 171.103 165.069 171.103L165.166 171.134C169.069 158 186.616 98.7281 187.947 92.9531C189.469 86.4469 193.531 71.5969 197.944 74.1031C202.353 76.6094 204.097 95.3625 201.466 115.863C198.8 136.359 193.975 148.513 189.025 153.619C184.044 158.697 178.269 155.269 175.953 161.616C174.397 165.931 173.319 170.753 172.781 173.453C172.941 174.338 173.541 176.369 175.634 176.688C176.716 176.878 177.953 176.625 179.031 176.306C179.888 175.928 180.775 175.578 181.631 175.166C207.872 163.328 225.831 136.772 225.231 105.866Z" fill="#1B2426"/>
</g>
</svg>
