<svg width="10" height="8" viewBox="0 0 10 8" fill="none" xmlns="http://www.w3.org/2000/svg">
<path d="M7.4 0C6.48207 0 5.67529 0.372856 5.2125 0.932837H0.8C0.358 0.932837 0 1.21113 0 1.55473V7.15175C0 7.2071 0.0124875 7.25956 0.0296875 7.31086L5.22422 3.27282C5.3472 3.46978 5.48468 3.65717 5.62578 3.84006L4.96563 4.35324L8.77031 7.31086C8.78751 7.25956 8.8 7.2071 8.8 7.15175V4.33138C8.8601 4.25282 8.92106 4.17386 8.98281 4.09513C9.45961 3.48723 10 2.79851 10 2.02115C10 0.906717 8.8336 0 7.4 0ZM7.4 0.621891C8.394 0.621891 9.2 1.24845 9.2 2.02115C9.2 2.41441 8.99829 2.80156 8.73984 3.17869C8.63066 3.33788 8.51462 3.49611 8.39375 3.65118C8.3845 3.66304 8.37566 3.67518 8.36641 3.68701C8.35755 3.69834 8.34948 3.70911 8.34062 3.72042C8.23635 3.85356 8.13414 3.98512 8.0375 4.11456C7.95071 4.23093 7.86666 4.34711 7.79609 4.46013C7.7496 4.53451 7.70871 4.60778 7.67266 4.68058C7.66317 4.69975 7.65552 4.71861 7.64687 4.73767C7.6209 4.79489 7.59952 4.85157 7.58203 4.90772C7.57529 4.9294 7.56862 4.95118 7.56328 4.9727C7.54509 5.04588 7.53203 5.1183 7.53203 5.18951C7.53203 5.24206 7.4672 5.28122 7.4 5.28122C7.3328 5.28122 7.27734 5.23507 7.27734 5.18283C7.27732 5.11872 7.26755 5.05308 7.25234 4.98728C7.24726 4.96521 7.23865 4.94272 7.23203 4.92047C7.21987 4.87971 7.20675 4.83915 7.18984 4.79779C7.17731 4.76704 7.16334 4.73594 7.14844 4.70487C7.13004 4.66659 7.10991 4.62824 7.08828 4.58948C7.07137 4.55913 7.0546 4.52841 7.03594 4.49778C7.02156 4.47423 7.00516 4.45043 6.98984 4.42672C6.93825 4.34669 6.87882 4.26438 6.81875 4.18258C6.75701 4.09863 6.69437 4.01379 6.62734 3.92812C6.51783 3.78802 6.40761 3.64537 6.29688 3.50117C6.12122 3.27251 5.95437 3.04028 5.82812 2.80337C5.82758 2.80235 5.8271 2.80135 5.82656 2.80033C5.79289 2.73705 5.76256 2.67338 5.73516 2.60963V2.60842C5.70872 2.54684 5.68497 2.48516 5.66563 2.42319C5.65772 2.39751 5.65264 2.37181 5.64609 2.34606C5.63564 2.30562 5.62478 2.26518 5.61797 2.2246C5.60687 2.15705 5.6 2.08906 5.6 2.02115C5.6 1.93455 5.61344 1.85075 5.63281 1.7685C5.63651 1.75314 5.6394 1.73753 5.64375 1.72235C5.66361 1.65161 5.69195 1.58337 5.725 1.51707C5.73934 1.48889 5.75448 1.46112 5.77109 1.43387C5.7995 1.38638 5.83236 1.34104 5.86719 1.29662C5.90296 1.25179 5.94174 1.20859 5.98359 1.16726C5.99748 1.15337 6.01203 1.14004 6.02656 1.12657C6.10124 1.05817 6.18367 0.994844 6.27344 0.938303C6.27617 0.936585 6.27851 0.934543 6.28125 0.932837C6.58924 0.741222 6.9749 0.621891 7.4 0.621891ZM2.43281 1.55473C2.85601 1.55473 3.24123 1.68018 3.53203 1.88571L3.07266 2.24282C2.90026 2.12808 2.67681 2.05819 2.43281 2.05819C1.88881 2.05819 1.44844 2.40052 1.44844 2.82341C1.44844 3.24599 1.88881 3.58924 2.43281 3.58924C2.88921 3.58924 3.20588 3.37901 3.32188 3.08516H2.43281V2.59992L3.97188 2.60174C4.10547 3.09645 3.80241 4.09209 2.43281 4.09209C1.53081 4.09209 0.8 3.52428 0.8 2.82341C0.8 2.12254 1.53081 1.55473 2.43281 1.55473ZM7.4 1.55473C7.24087 1.55473 7.08826 1.60387 6.97574 1.69134C6.86321 1.77881 6.8 1.89744 6.8 2.02115C6.8 2.14485 6.86321 2.26348 6.97574 2.35095C7.08826 2.43842 7.24087 2.48756 7.4 2.48756C7.55913 2.48756 7.71174 2.43842 7.82426 2.35095C7.93679 2.26348 8 2.14485 8 2.02115C8 1.89744 7.93679 1.77881 7.82426 1.69134C7.71174 1.60387 7.55913 1.55473 7.4 1.55473ZM4.4 4.79293L0.595313 7.75056C0.661313 7.76393 0.7288 7.77364 0.8 7.77364H8C8.0712 7.77364 8.13869 7.76393 8.20469 7.75056L4.4 4.79293Z" fill="#FEB200"/>
</svg>
